ffmpeg version 4.2.7-0ubuntu0.1 Copyright (c) 2000-2022 the FFmpeg developers
  built with gcc 9 (Ubuntu 9.4.0-1ubuntu1~20.04.1)
  configuration: --prefix=/usr --extra-version=0ubuntu0.1 --toolchain=hardened --libdir=/usr/lib/x86_64-linux-gnu --incdir=/usr/include/x86_64-linux-gnu --arch=amd64 --enable-gpl --disable-stripping --enable-avresample --disable-filter=resample --enable-avisynth --enable-gnutls --enable-ladspa --enable-libaom --enable-libass --enable-libbluray --enable-libbs2b --enable-libcaca --enable-libcdio --enable-libcodec2 --enable-libflite --enable-libfontconfig --enable-libfreetype --enable-libfribidi --enable-libgme --enable-libgsm --enable-libjack --enable-libmp3lame --enable-libmysofa --enable-libopenjpeg --enable-libopenmpt --enable-libopus --enable-libpulse --enable-librsvg --enable-librubberband --enable-libshine --enable-libsnappy --enable-libsoxr --enable-libspeex --enable-libssh --enable-libtheora --enable-libtwolame --enable-libvidstab --enable-libvorbis --enable-libvpx --enable-libwavpack --enable-libwebp --enable-libx265 --enable-libxml2 --enable-libxvid --enable-libzmq --enable-libzvbi --enable-lv2 --enable-omx --enable-openal --enable-opencl --enable-opengl --enable-sdl2 --enable-libdc1394 --enable-libdrm --enable-libiec61883 --enable-nvenc --enable-chromaprint --enable-frei0r --enable-libx264 --enable-shared
  libavutil      56. 31.100 / 56. 31.100
  libavcodec     58. 54.100 / 58. 54.100
  libavformat    58. 29.100 / 58. 29.100
  libavdevice    58.  8.100 / 58.  8.100
  libavfilter     7. 57.100 /  7. 57.100
  libavresample   4.  0.  0 /  4.  0.  0
  libswscale      5.  5.100 /  5.  5.100
  libswresample   3.  5.100 /  3.  5.100
  libpostproc    55.  5.100 / 55.  5.100
Routing option strict to both codec and muxer layer
[h264 @ 0x55804c945000] Reinit context to 640x848, pix_fmt: yuv420p
Input #0, mov,mp4,m4a,3gp,3g2,mj2, from '/var/www/html/project/media/video/original/VID-20250202-WA0011.mp4':
  Metadata:
    major_brand     : mp42
    minor_version   : 0
    compatible_brands: mp42isom
  Duration: 00:00:03.43, start: 0.000000, bitrate: 1842 kb/s
    Stream #0:0(und): Video: h264 (High), 1 reference frame (avc1 / 0x31637661), yuv420p(tv, bt470bg/bt470bg/smpte170m, left), 636x848 (640x848), 1678 kb/s, 30.01 fps, 30 tbr, 30k tbn, 60k tbc (default)
    Stream #0:1(und): Audio: aac (LC) (mp4a / 0x6134706D), 48000 Hz, stereo, fltp, 256 kb/s (default)
Input #1, png_pipe, from '/var/www/html/project/static/images/templates/logo_vertical.png':
  Duration: N/A, bitrate: N/A
    Stream #1:0: Video: png, 1 reference frame, rgba(pc), 1920x1080 [SAR 2835:2835 DAR 16:9], 25 tbr, 25 tbn, 25 tbc
[Parsed_scale_1 @ 0x55804c9f5b80] w:1280 h:720 flags:'bilinear' interl:0
[Parsed_scale_4 @ 0x55804c996180] w:-1 h:720 flags:'bilinear' interl:0
[Parsed_scale_6 @ 0x55804c972480] w:1280 h:720 flags:'bilinear' interl:0
Stream mapping:
  Stream #0:0 (h264) -> split (graph 0)
  Stream #1:0 (png) -> scale (graph 0)
  overlay (graph 0) -> Stream #0:0 (libx264)
  Stream #0:1 -> #0:1 (aac (native) -> aac (native))
Press [q] to stop, [?] for help
[h264 @ 0x55804c9fce80] Reinit context to 640x848, pix_fmt: yuv420p
[Parsed_scale_1 @ 0x55804c9f8d40] w:1280 h:720 flags:'bilinear' interl:0
[Parsed_scale_4 @ 0x55804d063f80] w:-1 h:720 flags:'bilinear' interl:0
[Parsed_scale_6 @ 0x55804d0654c0] w:1280 h:720 flags:'bilinear' interl:0
[graph 0 input from stream 0:0 @ 0x55804d068a00] w:636 h:848 pixfmt:yuv420p tb:1/30000 fr:30/1 sar:0/1 sws_param:flags=2
[graph 0 input from stream 1:0 @ 0x55804d0699c0] w:1920 h:1080 pixfmt:rgba tb:1/25 fr:25/1 sar:2835/2835 sws_param:flags=2
[Parsed_scale_1 @ 0x55804c9f8d40] w:636 h:848 fmt:yuv420p sar:0/1 -> w:1280 h:720 fmt:yuv420p sar:0/1 flags:0x2
[Parsed_boxblur_2 @ 0x55804d062d80] luma_radius:36 luma_power:1 chroma_radius:18 chroma_power:1 alpha_radius:36 alpha_power:1 w:1280 chroma_w:640 h:720 chroma_h:360
[Parsed_setsar_3 @ 0x55804d063700] w:1280 h:720 sar:0/1 dar:16/9 -> sar:1/1 dar:16/9
[Parsed_scale_4 @ 0x55804d063f80] w:636 h:848 fmt:yuv420p sar:0/1 -> w:540 h:720 fmt:yuva420p sar:0/1 flags:0x2
[Parsed_setsar_5 @ 0x55804d0647c0] w:540 h:720 sar:0/1 dar:3/4 -> sar:1/1 dar:3/4
[Parsed_overlay_8 @ 0x55804d066c40] main w:1280 h:720 fmt:yuv420p overlay w:540 h:720 fmt:yuva420p
[Parsed_overlay_8 @ 0x55804d066c40] [framesync @ 0x55804d066d68] Selected 1/30000 time base
[Parsed_overlay_8 @ 0x55804d066c40] [framesync @ 0x55804d066d68] Sync level 2
[Parsed_scale_6 @ 0x55804d0654c0] w:1920 h:1080 fmt:rgba sar:2835/2835 -> w:1280 h:720 fmt:yuva420p sar:1/1 flags:0x2
[Parsed_setsar_7 @ 0x55804d066000] w:1280 h:720 sar:1/1 dar:16/9 -> sar:1/1 dar:16/9
[Parsed_overlay_9 @ 0x55804d067bc0] main w:1280 h:720 fmt:yuv420p overlay w:1280 h:720 fmt:yuva420p
[Parsed_overlay_9 @ 0x55804d067bc0] [framesync @ 0x55804d067d28] Selected 1/30000 time base
[Parsed_overlay_9 @ 0x55804d067bc0] [framesync @ 0x55804d067d28] Sync level 2
[libx264 @ 0x55804c972440] using SAR=1/1
[libx264 @ 0x55804c972440] using cpu capabilities: MMX2 SSE2Fast SSSE3 SSE4.2 AVX FMA3 BMI2 AVX2
[libx264 @ 0x55804c972440] profile High, level 3.1
[libx264 @ 0x55804c972440] 264 - core 155 r2917 0a84d98 - H.264/MPEG-4 AVC codec - Copyleft 2003-2018 - http://www.videolan.org/x264.html - options: cabac=1 ref=1 deblock=1:0:0 analyse=0x3:0x113 me=hex subme=2 psy=1 psy_rd=1.00:0.00 mixed_ref=0 me_range=16 chroma_me=1 trellis=0 8x8dct=1 cqm=0 deadzone=21,11 fast_pskip=1 chroma_qp_offset=0 threads=22 lookahead_threads=5 sliced_threads=0 nr=0 decimate=1 interlaced=0 bluray_compat=0 constrained_intra=0 bframes=3 b_pyramid=2 b_adapt=1 b_bias=0 direct=1 weightb=1 open_gop=0 weightp=1 keyint=250 keyint_min=25 scenecut=40 intra_refresh=0 rc_lookahead=10 rc=crf mbtree=1 crf=18.0 qcomp=0.60 qpmin=0 qpmax=69 qpstep=4 ip_ratio=1.40 aq=1:1.00
[graph_1_in_0_1 @ 0x55804fd6b780] tb:1/48000 samplefmt:fltp samplerate:48000 chlayout:0x3
Output #0, mp4, to '/var/www/html/project/media/video/watermarks/VID-20250202-WA0011.mp4':
  Metadata:
    major_brand     : mp42
    minor_version   : 0
    compatible_brands: mp42isom
    encoder         : Lavf58.29.100
    Stream #0:0: Video: h264 (libx264), 1 reference frame (avc1 / 0x31637661), yuv420p(progressive), 1280x720 [SAR 1:1 DAR 16:9], q=-1--1, 30 fps, 15360 tbn, 30 tbc (default)
    Metadata:
      encoder         : Lavc58.54.100 libx264
    Side data:
      cpb: bitrate max/min/avg: 0/0/0 buffer size: 0 vbv_delay: -1
    Stream #0:1(und): Audio: aac (LC) (mp4a / 0x6134706D), 48000 Hz, stereo, fltp, delay 1024, 128 kb/s (default)
    Metadata:
      encoder         : Lavc58.54.100 aac
[Parsed_overlay_8 @ 0x55804d066c40] [framesync @ 0x55804d066d68] Sync level 1
[Parsed_overlay_8 @ 0x55804d066c40] [framesync @ 0x55804d066d68] Sync level 0
[Parsed_overlay_9 @ 0x55804d067bc0] [framesync @ 0x55804d067d28] Sync level 0
No more output streams to write to, finishing.
frame=   97 fps= 29 q=-1.0 Lsize=    1664kB time=00:00:03.43 bitrate=3968.2kbits/s speed=1.02x    
[AVIOContext @ 0x55804c943280] Statistics: 0 seeks, 7 writeouts
video:1603kB audio:55kB subtitle:0kB other streams:0kB global headers:0kB muxing overhead: 0.294646%
Input file #0 (/var/www/html/project/media/video/original/VID-20250202-WA0011.mp4):
  Input stream #0:0 (video): 97 packets read (678428 bytes); 97 frames decoded; 
  Input stream #0:1 (audio): 161 packets read (110151 bytes); 161 frames decoded (164864 samples); 
  Total: 258 packets (788579 bytes) demuxed
Input file #1 (/var/www/html/project/static/images/templates/logo_vertical.png):
  Input stream #1:0 (video): 1 packets read (93903 bytes); 1 frames decoded; 
  Total: 1 packets (93903 bytes) demuxed
Output file #0 (/var/www/html/project/media/video/watermarks/VID-20250202-WA0011.mp4):
  Output stream #0:0 (video): 97 frames encoded; 97 packets muxed (1641871 bytes); 
  Output stream #0:1 (audio): 161 frames encoded (164864 samples); 162 packets muxed (56780 bytes); 
  Total: 259 packets (1698651 bytes) muxed
[AVIOContext @ 0x55804c996140] Statistics: 2 seeks, 10 writeouts
[libx264 @ 0x55804c972440] frame I:1     Avg QP:19.87  size: 80164
[libx264 @ 0x55804c972440] frame P:24    Avg QP:19.41  size: 35529
[libx264 @ 0x55804c972440] frame B:72    Avg QP:22.22  size:  9838
[libx264 @ 0x55804c972440] consecutive B-frames:  1.0%  0.0%  0.0% 99.0%
[libx264 @ 0x55804c972440] mb I  I16..4: 16.0% 46.4% 37.6%
[libx264 @ 0x55804c972440] mb P  I16..4:  8.2% 15.6%  3.6%  P16..4: 29.9% 18.0% 12.4%  0.0%  0.0%    skip:12.3%
[libx264 @ 0x55804c972440] mb B  I16..4:  1.2%  1.0%  0.1%  B16..8: 22.4% 10.5%  2.3%  direct:12.2%  skip:50.1%  L0:40.5% L1:38.6% BI:20.8%
[libx264 @ 0x55804c972440] 8x8 transform intra:53.5% inter:26.9%
[libx264 @ 0x55804c972440] coded y,uvDC,uvAC intra: 46.8% 64.3% 17.0% inter: 16.1% 19.0% 0.9%
[libx264 @ 0x55804c972440] i16 v,h,dc,p: 26% 34% 11% 28%
[libx264 @ 0x55804c972440] i8 v,h,dc,ddl,ddr,vr,hd,vl,hu: 22% 39% 14%  3%  5%  4%  6%  4%  3%
[libx264 @ 0x55804c972440] i4 v,h,dc,ddl,ddr,vr,hd,vl,hu: 34% 20% 13%  4%  6%  8%  6%  5%  5%
[libx264 @ 0x55804c972440] i8c dc,h,v,p: 40% 27% 18% 15%
[libx264 @ 0x55804c972440] Weighted P-Frames: Y:20.8% UV:0.0%
[libx264 @ 0x55804c972440] kb/s:4060.66
[aac @ 0x55804c9d2f80] Qavg: 2273.756
[AVIOContext @ 0x55804c94c240] Statistics: 791063 bytes read, 0 seeks
[AVIOContext @ 0x55804ca00ec0] Statistics: 93903 bytes read, 0 seeks
